<svg width="17" height="16" viewBox="0 0 17 16" fill="none" xmlns="http://www.w3.org/2000/svg">
<path d="M4.84643 16C3.57881 15.4756 2.45269 14.5495 1.46808 13.2218C0.48936 11.894 0 10.1674 0 8.04184V7.95816C0 5.78801 0.483464 4.053 1.45039 2.75314C2.41732 1.45328 3.54933 0.535565 4.84643 0L5.5 1.59833C4.80428 2.01116 4.15574 2.7113 3.55435 3.69874C2.95297 4.68061 2.65228 6.08089 2.65228 7.89958V8.10042C2.65228 9.87448 2.95002 11.2664 3.54551 12.2762C4.141 13.2803 4.79249 13.9888 5.5 14.4017L4.84643 16Z" fill="#50545F"/>
<path d="M12.1536 16L11.6611 14.3431C12.3627 13.9414 13.0113 13.2357 13.6068 12.2259C14.2023 11.2106 14.5 9.8159 14.5 8.04184V7.841C14.5 6.02232 14.1993 4.62204 13.5979 3.64017C13.0024 2.65272 12.3568 1.95258 11.6611 1.53975L12.1536 0C13.4153 0.529986 14.5385 1.44491 15.5231 2.74477C16.5077 4.03905 17 5.77685 17 7.95816V8.04184C17 10.1674 16.5106 11.894 15.5319 13.2218C14.5532 14.5495 13.4271 15.4756 12.1536 16Z" fill="#50545F"/>
</svg>
