<svg width="26" height="26" viewBox="0 0 26 26" fill="none" xmlns="http://www.w3.org/2000/svg">
<path fill-rule="evenodd" clip-rule="evenodd" d="M5.41667 3.25C4.84203 3.25 4.29093 3.47827 3.8846 3.8846C3.47827 4.29093 3.25 4.84203 3.25 5.41667V8.66667H22.75V5.41667C22.75 4.84203 22.5217 4.29093 22.1154 3.8846C21.7091 3.47827 21.158 3.25 20.5833 3.25H5.41667ZM22.75 10.8333H3.25V20.5833C3.25 21.158 3.47827 21.7091 3.8846 22.1154C4.29093 22.5217 4.84203 22.75 5.41667 22.75H20.5833C21.158 22.75 21.7091 22.5217 22.1154 22.1154C22.5217 21.7091 22.75 21.158 22.75 20.5833V10.8333ZM7.58333 15.1667C7.58333 14.8793 7.69747 14.6038 7.90063 14.4006C8.1038 14.1975 8.37935 14.0833 8.66667 14.0833H17.3333C17.6207 14.0833 17.8962 14.1975 18.0994 14.4006C18.3025 14.6038 18.4167 14.8793 18.4167 15.1667C18.4167 15.454 18.3025 15.7295 18.0994 15.9327C17.8962 16.1359 17.6207 16.25 17.3333 16.25H8.66667C8.37935 16.25 8.1038 16.1359 7.90063 15.9327C7.69747 15.7295 7.58333 15.454 7.58333 15.1667ZM8.66667 17.3333C8.37935 17.3333 8.1038 17.4475 7.90063 17.6506C7.69747 17.8538 7.58333 18.1293 7.58333 18.4167C7.58333 18.704 7.69747 18.9795 7.90063 19.1827C8.1038 19.3859 8.37935 19.5 8.66667 19.5H17.3333C17.6207 19.5 17.8962 19.3859 18.0994 19.1827C18.3025 18.9795 18.4167 18.704 18.4167 18.4167C18.4167 18.1293 18.3025 17.8538 18.0994 17.6506C17.8962 17.4475 17.6207 17.3333 17.3333 17.3333H8.66667Z" fill="#4463D2"/>
</svg>
