<svg width="462" height="18" viewBox="0 0 462 18" fill="none" xmlns="http://www.w3.org/2000/svg">
<path d="M0.336328 8.07031L0.673406 7.12884L0.509948 7.07031H0.336328V8.07031ZM216.986 16.0983L216.93 17.0967L216.986 16.0983ZM267.986 11.9694L268.192 12.9479L267.986 11.9694ZM293.486 8.39623L293.417 7.39865L293.486 8.39623ZM318.986 5.78093L319.121 6.77188L318.986 5.78093ZM344.486 10.0895L344.059 10.9934L344.486 10.0895ZM369.986 9.76658L370.433 10.6615L369.986 9.76658ZM395.486 1.94836L395.373 0.954853L395.486 1.94836ZM420.986 4.18577L420.708 5.14619L420.986 4.18577ZM459.736 11.6886L460.727 11.8255L460.729 11.812L460.73 11.7985L459.736 11.6886ZM460.136 8.07031V7.07031H459.241L459.142 7.96043L460.136 8.07031ZM0.236328 8.07031V9.07031H0.336328V8.07031V7.07031H0.236328V8.07031ZM0.336328 8.07031L-0.000750184 9.01179C16.983 15.0925 30.0435 16.1476 38.93 11.7478L38.4863 10.8516L38.0426 9.95542C29.9291 13.9725 17.5563 13.1734 0.673406 7.12884L0.336328 8.07031ZM38.4863 10.8516L38.93 11.7478C47.3338 7.58694 55.7174 5.10056 64.0848 4.27303L63.9863 3.27789L63.8879 2.28274C55.2552 3.13651 46.6389 5.69927 38.0426 9.95542L38.4863 10.8516ZM63.9863 3.27789L64.0848 4.27303C72.4961 3.44115 80.9074 3.7297 89.3211 5.13939L89.4863 4.15314L89.6516 3.16688C81.0653 1.72827 72.4766 1.43332 63.8879 2.28274L63.9863 3.27789ZM89.4863 4.15314L89.3211 5.13939C97.9808 6.5903 106.639 5.96509 115.284 3.27201L114.986 2.31727L114.689 1.36252C106.333 3.96556 97.9918 4.56427 89.6516 3.16688L89.4863 4.15314ZM114.986 2.31727L115.284 3.27201C123.467 0.72253 131.666 1.99503 139.954 7.20147L140.486 6.35469L141.018 5.50791C132.306 0.0349874 123.505 -1.38412 114.689 1.36252L114.986 2.31727ZM140.486 6.35469L139.954 7.20147C148.607 12.6368 157.323 14.9876 166.079 14.1716L165.986 13.1759L165.894 12.1802C157.649 12.9486 149.366 10.752 141.018 5.50791L140.486 6.35469ZM165.986 13.1759L166.079 14.1716C174.504 13.3864 182.929 13.5537 191.355 14.6738L191.486 13.6825L191.618 12.6912C183.044 11.5515 174.469 11.3811 165.894 12.1802L165.986 13.1759ZM191.486 13.6825L191.355 14.6738C199.879 15.8069 208.405 16.6146 216.93 17.0967L216.986 16.0983L217.043 15.0999C208.568 14.6207 200.093 13.8178 191.618 12.6912L191.486 13.6825ZM216.986 16.0983L216.93 17.0967C225.477 17.58 234.024 17.4587 242.571 16.7328L242.486 15.7364L242.402 14.7399C233.949 15.4579 225.496 15.5779 217.043 15.0999L216.986 16.0983ZM242.486 15.7364L242.571 16.7328C251.112 16.0073 259.653 14.7456 268.192 12.9479L267.986 11.9694L267.78 10.9908C259.32 12.7719 250.86 14.0215 242.402 14.7399L242.486 15.7364ZM267.986 11.9694L268.192 12.9479C276.648 11.1678 285.103 9.98322 293.556 9.39381L293.486 8.39623L293.417 7.39865C284.87 7.99459 276.324 9.19211 267.78 10.9908L267.986 11.9694ZM293.486 8.39623L293.556 9.39381C302.078 8.79961 310.599 7.92563 319.121 6.77188L318.986 5.78093L318.852 4.78997C310.373 5.93794 301.895 6.80749 293.417 7.39865L293.486 8.39623ZM318.986 5.78093L319.121 6.77188C327.41 5.64948 335.716 7.04465 344.059 10.9934L344.486 10.0895L344.914 9.18566C336.257 5.08789 327.562 3.61066 318.852 4.78997L318.986 5.78093ZM344.486 10.0895L344.059 10.9934C352.839 15.1494 361.661 15.0353 370.433 10.6615L369.986 9.76658L369.54 8.87167C361.311 12.9749 353.134 13.0761 344.914 9.18566L344.486 10.0895ZM369.986 9.76658L370.433 10.6615C378.84 6.46921 387.228 3.90082 395.6 2.94186L395.486 1.94836L395.373 0.954853C386.745 1.94308 378.133 4.58684 369.54 8.87167L369.986 9.76658ZM395.486 1.94836L395.6 2.94186C403.964 1.98387 412.331 2.71661 420.708 5.14619L420.986 4.18577L421.265 3.22534C412.642 0.724524 404.009 -0.0343447 395.373 0.954853L395.486 1.94836ZM420.986 4.18577L420.708 5.14619C429.207 7.6113 437.707 10.081 446.207 12.5554L446.486 11.5953L446.766 10.6351C438.266 8.16056 429.765 5.69064 421.265 3.22534L420.986 4.18577ZM446.486 11.5953L446.207 12.5554C450.475 13.798 453.814 14.4578 456.167 14.4744C457.337 14.4827 458.37 14.3342 459.169 13.9336C460.026 13.5042 460.594 12.7883 460.727 11.8255L459.736 11.6886L458.746 11.5518C458.712 11.7951 458.603 11.9799 458.273 12.1457C457.884 12.3404 457.219 12.4818 456.181 12.4745C454.117 12.4599 450.997 11.867 446.766 10.6351L446.486 11.5953ZM459.736 11.6886L460.73 11.7985L461.13 8.18019L460.136 8.07031L459.142 7.96043L458.742 11.5788L459.736 11.6886ZM460.136 8.07031V9.07031H460.236V8.07031V7.07031H460.136V8.07031Z" fill="#4463D2"/>
</svg>
