<svg width="52" height="27" viewBox="0 0 52 27" fill="none" xmlns="http://www.w3.org/2000/svg">
<path d="M0.964844 10.2041C0.964844 10.2041 4.11268 10.2041 5.47198 10.2041C6.83127 10.2041 7.11744 15.6395 8.26211 15.6395C9.83603 15.6395 9.91311 4.26599 11.3384 4.12124C13.4847 3.90327 13.0554 18.8334 15.9171 18.6427C18.7788 18.4519 17.7772 1.11077 19.995 0.968255C22.3558 0.816545 21.0445 12.5576 23.0713 12.5577C24.2875 12.5577 23.9298 10.4936 24.9313 10.2041C25.7326 9.97246 27.2207 10.1076 27.4353 10.2041" stroke="#BAC4E8" stroke-width="1.9314" stroke-linecap="round"/>
<path d="M45.5384 10.3503C45.5384 15.6448 41.2464 19.9369 35.9518 19.9369C30.6573 19.9369 26.3652 15.6448 26.3652 10.3503C26.3652 5.05574 30.6573 0.763672 35.9518 0.763672C41.2464 0.763672 45.5384 5.05574 45.5384 10.3503ZM30.2365 10.3503C30.2365 13.5068 32.7953 16.0656 35.9518 16.0656C39.1083 16.0656 41.6672 13.5068 41.6672 10.3503C41.6672 7.19376 39.1083 4.63491 35.9518 4.63491C32.7953 4.63491 30.2365 7.19376 30.2365 10.3503Z" fill="white"/>
<path d="M40.957 18.2012L43.8056 15.3526L51.2941 22.8411C51.5262 23.0732 51.5262 23.4495 51.2941 23.6816L49.286 25.6897C49.0539 25.9218 48.6776 25.9218 48.4455 25.6897L40.957 18.2012Z" fill="white"/>
</svg>
