<svg width="161" height="42" viewBox="0 0 161 42" fill="none" xmlns="http://www.w3.org/2000/svg">
<path d="M30 0V27.4087C30 31.8338 28.982 35.2098 26.9461 37.5368C24.2715 40.5123 20.3194 42 15.0898 42C8.82236 42 4.4511 39.9782 1.97605 35.9346C0.658683 33.7602 0 30.6131 0 26.4932C0 25.9973 0 25.406 0 24.7193H10.2395V25.8065C10.2395 28.6676 10.479 30.5177 10.9581 31.3569C11.6367 32.5777 12.8942 33.188 14.7305 33.188C16.2076 33.188 17.2455 32.7875 17.8443 31.9864C18.483 31.1853 18.8024 29.812 18.8024 27.8665V0H30Z" fill="#4463D2"/>
<path d="M34 0H69V10.2857H34V15.4286H66.439V26.1429H34V32.1429H69V42H34V32.1429V26.1429V15.4286V10.2857V0Z" fill="url(#paint0_linear_10464_7)"/>
<path d="M106.379 13.0133H96.4265C96.2774 9.7367 94.1342 8.0984 89.9968 8.0984C86.3813 8.0984 84.5735 9.27128 84.5735 11.617C84.5735 12.6968 85.058 13.4787 86.0272 13.9628C86.8472 14.3723 89.475 15.1356 93.9105 16.2527C98.1225 17.3324 101.179 18.4681 103.08 19.6596C106.36 21.6702 108 24.6862 108 28.7074C108 33.1011 106.267 36.4894 102.8 38.8723C99.7812 40.9574 95.8115 42 90.8914 42C84.9276 42 80.3802 40.5665 77.2492 37.6995C74.4909 35.2048 73.0745 31.8165 73 27.5346H83.5112C83.7348 31.7793 86.3253 33.9016 91.2827 33.9016C95.3456 33.9016 97.377 32.5426 97.377 29.8245C97.377 28.5585 96.8365 27.6277 95.7556 27.0319C94.7119 26.3989 92.0841 25.4867 87.8722 24.2952C82.7657 22.8431 79.3365 21.3723 77.5847 19.883C75.5346 18.133 74.5096 15.6011 74.5096 12.2872C74.5096 8.34043 76.1496 5.23138 79.4297 2.9601C82.2998 0.986701 85.9712 0 90.4441 0C95.7742 0 99.8371 1.28457 102.633 3.85372C105.055 6.08777 106.304 9.14096 106.379 13.0133Z" fill="#4463D2"/>
<path d="M161 0V42H150.393V32.5559C150.393 26.4944 150.573 18.986 150.933 10.0307C149.414 16.3268 147.876 21.8799 146.318 26.6899L141.345 42H137.06H132.775L127.742 27.1006C126.263 22.7598 124.705 17.0698 123.067 10.0307C123.427 18.0084 123.607 25.0475 123.607 31.148V42H113V0H129.06L133.674 14.6061C135.032 18.8687 136.191 23.7374 137.15 29.2123C138.468 22.9553 139.687 18.0084 140.805 14.3715L145.18 0H161Z" fill="#4463D2"/>
<defs>
<linearGradient id="paint0_linear_10464_7" x1="34.0063" y1="0.0232781" x2="69.2013" y2="41.8524" gradientUnits="userSpaceOnUse">
<stop stop-color="#A235E2"/>
<stop offset="1" stop-color="#34B4C4"/>
</linearGradient>
</defs>
</svg>
