<svg width="39" height="32" viewBox="0 0 39 32" fill="none" xmlns="http://www.w3.org/2000/svg">
<path d="M7.64694 22.1997L3.9398 25.4653C3.8185 25.572 3.74902 25.7257 3.74902 25.8869V30.9332C3.74902 31.2442 4.00193 31.4961 4.31386 31.4961H8.49052C8.80259 31.4961 9.05536 31.2442 9.05536 30.9332V22.8324C9.05536 22.1049 8.19398 21.7179 7.64694 22.1997Z" stroke="#BAC4E8" stroke-width="0.88125"/>
<path d="M13.5793 22.1997L17.2863 25.4653C17.4078 25.572 17.4773 25.7257 17.4773 25.8869V30.9332C17.4773 31.2442 17.2242 31.4961 16.9124 31.4961H12.7357C12.4237 31.4961 12.1709 31.2442 12.1709 30.9332V22.8324C12.1709 22.1049 13.0323 21.7179 13.5793 22.1997Z" stroke="#BAC4E8" stroke-width="0.88125"/>
<path d="M23.7119 21.8323L20.4926 24.9335C20.3824 25.0396 20.3203 25.1857 20.3203 25.3382V30.9311C20.3203 31.2418 20.5731 31.4939 20.8852 31.4939H25.0618C25.3739 31.4939 25.6267 31.2418 25.6267 30.9311V22.6417C25.6267 21.6479 24.4289 21.1416 23.7119 21.8323Z" stroke="#BAC4E8" stroke-width="0.88125"/>
<path d="M32.823 12.8403L28.6464 17.0547C28.5421 17.1599 28.4834 17.3021 28.4834 17.4501V30.9375C28.4834 31.2482 28.7364 31.5003 29.0482 31.5003H33.2249C33.537 31.5003 33.7898 31.2482 33.7898 30.9375V13.236C33.7898 12.7328 33.178 12.4823 32.823 12.8403Z" stroke="#BAC4E8" stroke-width="0.88125"/>
<path d="M3.95306 21.9587L9.94098 16.2347C10.1584 16.0267 10.501 16.0256 10.7199 16.2316L17.5073 22.6215C18.0602 23.1422 18.9278 23.1326 19.4692 22.6001L34.1626 8.14291C34.388 7.92113 34.752 7.92733 34.9698 8.15642L36.5499 9.81947C37.2523 10.5585 38.5 10.0632 38.5 9.04522V1.40722C38.5 0.630041 37.8677 0 37.0879 0H29.2855C28.2745 0 27.7726 1.22195 28.4933 1.9284L30.405 3.8022C30.6296 4.02201 30.6301 4.38254 30.4064 4.60347L18.8843 15.9733C18.6688 16.186 18.3235 16.1911 18.1018 15.9851L11.3265 9.68945C10.7702 9.17272 9.90286 9.18763 9.36485 9.72378L0.579035 18.4792C-0.167765 19.2236 -0.195695 20.4212 0.515633 21.1994L1.12323 21.8639C1.87198 22.6826 3.1508 22.7257 3.95306 21.9587Z" fill="white"/>
</svg>
