<svg width="34" height="34" viewBox="0 0 34 34" fill="none" xmlns="http://www.w3.org/2000/svg">
<g clip-path="url(#clip0_10464_1124)">
<path d="M19.7354 0.773438C20.5073 0.773438 21.2479 1.07995 21.793 1.625C22.3391 2.17108 22.6455 2.91141 22.6455 3.68359V3.68652C22.6455 4.33058 22.9682 4.92891 23.498 5.2832L23.6064 5.35059C24.2001 5.69365 24.9335 5.69418 25.5273 5.35156L25.5332 5.34863C26.2011 4.96323 26.9952 4.85997 27.7402 5.05957H27.7393C28.4848 5.25837 29.1209 5.74612 29.5068 6.41504C30.1284 7.49219 31.0464 9.08101 31.7891 10.3672C32.1996 11.0788 31.9551 11.9878 31.2441 12.3984C30.5326 12.8093 29.6228 12.5651 29.2119 11.8535L26.9609 7.95703C25.456 8.80155 23.6159 8.7928 22.1191 7.92773C20.6223 7.06353 19.6937 5.47431 19.6719 3.74902H14.1777C14.1559 5.47425 13.2282 7.06351 11.7314 7.92773C10.2342 8.79324 8.39298 8.80223 6.8877 7.95703L4.14062 12.7158C5.62423 13.5972 6.537 15.1951 6.53711 16.9238C6.53711 18.6525 5.62416 20.2504 4.14062 21.1318L6.88867 25.8906C8.39379 25.046 10.2346 25.0556 11.7314 25.9209C13.2387 26.7912 14.1696 28.3965 14.1787 30.1357C14.2222 30.178 14.3034 30.2572 14.3652 30.3359C14.4424 30.4343 14.5439 30.5976 14.5439 30.8145V31.5869C14.5439 31.9947 14.3724 32.3847 14.083 32.6377C13.7811 32.9016 13.347 33.012 12.9102 32.8135C12.5957 32.6705 12.3064 32.4714 12.0576 32.2227C11.5116 31.6767 11.2042 30.9371 11.2041 30.165V30.1611C11.204 29.4744 10.8378 28.8393 10.2441 28.4971H10.2432C9.64969 28.1542 8.91694 28.1538 8.32324 28.4961L8.32227 28.4971C8.31735 28.4999 8.31166 28.5013 8.30664 28.5039C7.72449 28.8369 7.04814 28.9575 6.3916 28.8496L6.11035 28.7891C5.36507 28.5903 4.72974 28.1022 4.34375 27.4336C3.95332 26.7569 3.44591 25.8776 2.93848 24.999C2.43109 24.1205 1.92275 23.2422 1.53223 22.5654L1.5332 22.5645C1.1473 21.8965 1.0426 21.1028 1.24219 20.3574V20.3564C1.43973 19.6206 1.9189 18.9927 2.57422 18.6055L2.57715 18.6025L2.58887 18.5957L2.60059 18.5879C3.19507 18.2443 3.56152 17.6104 3.56152 16.9238C3.56142 16.2374 3.195 15.6033 2.60059 15.2598L2.58887 15.2529L2.57422 15.2432V15.2422C2.00188 14.9039 1.56322 14.3828 1.33008 13.7656L1.24219 13.4912C1.04241 12.7454 1.14692 11.9505 1.5332 11.2822L4.34375 6.41504C4.72971 5.74629 5.365 5.25837 6.11035 5.05957L6.3916 4.99902C7.05162 4.89053 7.73218 5.01159 8.31641 5.34863C8.31149 5.3458 8.30581 5.34442 8.30078 5.3418C8.30782 5.34536 8.31546 5.34765 8.32227 5.35156H8.32324C8.91706 5.69404 9.64957 5.69361 10.2432 5.35059H10.2441C10.8378 5.00822 11.2041 4.37325 11.2041 3.68652V3.68359C11.2041 2.91141 11.5115 2.17108 12.0576 1.625C12.6027 1.08015 13.3424 0.773465 14.1143 0.773438H19.7354Z" fill="white" stroke="white" stroke-width="0.858805"/>
<path d="M18.084 11.2637C19.051 11.2637 19.9686 11.4808 20.79 11.8691C21.4665 12.189 21.5686 13.0214 21.1689 13.5625C20.7813 14.087 20.0893 14.1732 19.5566 13.958C19.1021 13.7743 18.6052 13.6729 18.084 13.6729C15.9111 13.6729 14.1475 15.4365 14.1475 17.6094C14.1475 18.5734 14.4943 19.4559 15.0703 20.1406C15.4555 20.5985 15.5784 21.3245 15.1504 21.8545C14.7442 22.3574 13.9571 22.4801 13.4668 21.96C12.3959 20.824 11.7383 19.2926 11.7383 17.6094C11.7383 14.1074 14.582 11.2637 18.084 11.2637Z" fill="white" stroke="white" stroke-width="0.695365"/>
</g>
<defs>
<clipPath id="clip0_10464_1124">
<rect width="33.8632" height="33.8632" fill="white"/>
</clipPath>
</defs>
</svg>
