<svg width="462" height="20" viewBox="0 0 462 20" fill="none" xmlns="http://www.w3.org/2000/svg">
<path d="M0.558984 10.1035V11.1035H0.865161L1.11885 10.9321L0.558984 10.1035ZM5.25898 6.92774L6.08818 6.36878L5.5286 5.53868L4.69912 6.09916L5.25898 6.92774ZM10.059 14.0483L9.22979 14.6073L9.93937 15.6599L10.7966 14.7236L10.059 14.0483ZM14.859 8.80516L15.485 8.02534L14.7542 7.43869L14.1214 8.12991L14.859 8.80516ZM19.659 12.6584L19.033 13.4382L19.5985 13.8921L20.2056 13.4957L19.659 12.6584ZM24.459 9.52471L24.7357 8.56375L24.2957 8.43706L23.9123 8.68735L24.459 9.52471ZM29.259 10.9069L30.029 10.2688L29.8321 10.0313L29.5357 9.94592L29.259 10.9069ZM34.059 16.6996L33.289 17.3377L34.4234 18.7068L35.0042 17.0262L34.059 16.6996ZM38.859 2.80847L39.7819 2.42352L38.7713 0.000462532L37.9138 2.48188L38.859 2.80847ZM43.659 14.3164L42.7361 14.7014L43.4556 16.4265L44.4914 14.8706L43.659 14.3164ZM48.459 7.10639L49.1341 6.36865L48.2732 5.5809L47.6266 6.55222L48.459 7.10639ZM53.259 11.4988L52.5839 12.2365L52.8519 12.4818L53.2148 12.4978L53.259 11.4988ZM58.059 11.7112L58.0148 12.7102L58.4229 12.7283L58.7269 12.4554L58.059 11.7112ZM62.859 7.40319L63.7279 6.90819L63.114 5.83062L62.1911 6.65897L62.859 7.40319ZM67.659 15.8288L66.7901 16.3238L67.5751 17.7018L68.4801 16.3995L67.659 15.8288ZM72.459 8.92222L72.1959 7.95744L71.8453 8.05306L71.6378 8.35152L72.459 8.92222ZM77.259 7.6134L77.8522 6.80836L77.4627 6.52135L76.9959 6.64863L77.259 7.6134ZM82.059 11.1503L82.8491 10.5373L82.764 10.4276L82.6522 10.3453L82.059 11.1503ZM86.859 17.3367L86.0689 17.9497L87.0349 19.1947L87.7501 17.7905L86.859 17.3367ZM91.659 7.91238L92.5096 7.3866L91.5748 5.87427L90.7679 7.45853L91.659 7.91238ZM96.459 15.6778L95.6084 16.2036L96.5823 17.7793L97.3653 16.1005L96.459 15.6778ZM101.259 5.38619L101.865 4.59068L100.877 3.83848L100.353 4.9635L101.259 5.38619ZM106.059 9.04241L105.453 9.83791L106.008 10.2604L106.596 9.88608L106.059 9.04241ZM110.859 5.98795L111.766 5.56606L111.284 4.53192L110.322 5.14428L110.859 5.98795ZM115.659 16.3033L114.752 16.7252L115.213 17.7159L116.159 17.1691L115.659 16.3033ZM120.459 13.529L121.073 12.7393L120.541 12.3265L119.959 12.6632L120.459 13.529ZM125.259 17.2581L124.645 18.0478L125.468 18.6867L126.073 17.8392L125.259 17.2581ZM130.059 10.5347L129.983 9.53756L129.517 9.57305L129.245 9.95363L130.059 10.5347ZM134.859 10.1693L134.935 11.1664L135.357 11.1342L135.628 10.8083L134.859 10.1693ZM139.659 4.39063L140.51 3.86624L139.78 2.67999L138.89 3.75166L139.659 4.39063ZM144.459 12.1848L143.607 12.7091L144.077 13.4715L144.886 13.0888L144.459 12.1848ZM149.259 9.91536L149.81 9.0806L149.34 8.7709L148.832 9.01131L149.259 9.91536ZM154.059 13.0815L153.508 13.9162L153.829 14.1278L154.209 14.0701L154.059 13.0815ZM158.859 12.3525L159.451 11.5467L159.118 11.3018L158.709 11.3639L158.859 12.3525ZM163.659 15.8795L163.067 16.6853L164.097 17.4419L164.584 16.2606L163.659 15.8795ZM168.459 4.23525L168.52 3.23713L167.807 3.19336L167.534 3.85414L168.459 4.23525ZM173.259 4.52979L173.91 3.77084L173.655 3.55223L173.32 3.53167L173.259 4.52979ZM178.059 8.648L177.408 9.40695L177.939 9.86231L178.548 9.52004L178.059 8.648ZM182.859 5.95398L183.772 5.54516L183.324 4.54619L182.37 5.08194L182.859 5.95398ZM187.659 16.6692L186.746 17.078L187.497 18.7536L188.497 17.2141L187.659 16.6692ZM192.459 9.28341L193.29 8.72692L192.446 7.46765L191.62 8.73848L192.459 9.28341ZM197.259 16.45L196.428 17.0065L196.903 17.7148L197.677 17.3584L197.259 16.45ZM202.059 14.2414L202.373 13.2921L201.999 13.1682L201.641 13.3329L202.059 14.2414ZM206.859 15.8309L206.545 16.7802L206.566 16.7872L206.587 16.7932L206.859 15.8309ZM211.659 17.1874L211.387 18.1497L212.271 18.3995L212.595 17.5396L211.659 17.1874ZM216.459 4.43529L217.156 3.71845L216.061 2.65338L215.523 4.08301L216.459 4.43529ZM221.259 9.10404L222.015 8.44948L221.987 8.41708L221.956 8.3872L221.259 9.10404ZM226.059 14.6481L225.303 15.3026L225.577 15.6188L225.994 15.646L226.059 14.6481ZM230.859 14.9607L230.794 15.9586L231.135 15.9808L231.419 15.7894L230.859 14.9607ZM235.659 11.7187L236.142 10.8429L235.606 10.5477L235.099 10.89L235.659 11.7187ZM240.459 14.3639L239.976 15.2397L240.913 15.7559L241.365 14.7869L240.459 14.3639ZM245.259 4.08004L245.017 3.10986L244.554 3.22536L244.353 3.65709L245.259 4.08004ZM250.059 2.88064L250.882 2.31293L250.489 1.74249L249.817 1.91047L250.059 2.88064ZM254.859 9.84088L254.036 10.4086L254.469 11.0365L255.189 10.7849L254.859 9.84088ZM259.659 8.16344L260.083 7.25776L259.714 7.08496L259.329 7.21942L259.659 8.16344ZM264.459 10.4105L264.035 11.3161L264.707 11.6305L265.202 11.0792L264.459 10.4105ZM269.259 5.07394L270.108 4.54547L269.405 3.41626L268.516 4.4052L269.259 5.07394ZM274.059 12.7848L273.21 13.3133L273.86 14.3572L274.749 13.5082L274.059 12.7848ZM278.859 8.20367L279.734 7.71995L279.107 6.58479L278.169 7.48026L278.859 8.20367ZM283.659 16.8885L282.784 17.3722L283.152 18.0377L283.891 17.8612L283.659 16.8885ZM288.459 15.7429L288.691 16.7156L289.176 16.5998L289.375 16.1431L288.459 15.7429ZM293.259 4.75069L294.133 4.2641L293.15 2.50058L292.343 4.35051L293.259 4.75069ZM298.059 13.3686L297.185 13.8552L298.091 15.4812L298.947 13.8285L298.059 13.3686ZM302.859 4.10054L303.331 3.21877L302.437 2.74077L301.971 3.64065L302.859 4.10054ZM307.659 6.66814L307.187 7.54991L307.621 7.78207L308.07 7.57975L307.659 6.66814ZM312.459 4.50383L313.371 4.09318L312.96 3.181L312.048 3.59222L312.459 4.50383ZM317.259 15.1616L316.347 15.5723L316.834 16.6535L317.818 15.991L317.259 15.1616ZM322.059 11.9284L322.618 12.7578L322.665 12.7257L322.709 12.6884L322.059 11.9284ZM326.859 7.82399L327.67 7.23893L327.035 6.35814L326.209 7.06396L326.859 7.82399ZM331.659 14.4774L330.848 15.0625L331.058 15.3542L331.406 15.445L331.659 14.4774ZM336.459 15.7302L336.206 16.6978L336.919 16.8839L337.308 16.258L336.459 15.7302ZM341.259 8.00473L340.578 7.27215L340.48 7.36327L340.41 7.47698L341.259 8.00473ZM346.059 3.54485L346.529 2.662L345.9 2.32756L345.378 2.81226L346.059 3.54485ZM350.859 6.09839L350.389 6.98123L350.508 7.04422L350.639 7.07379L350.859 6.09839ZM355.659 7.18327L356.509 6.65713L356.289 6.30036L355.879 6.20788L355.659 7.18327ZM360.459 14.9415L359.609 15.4676L360.47 16.86L361.315 15.4578L360.459 14.9415ZM365.259 6.97905L364.817 6.08179L364.554 6.21139L364.403 6.46277L365.259 6.97905ZM370.059 4.61714L370.977 4.22116L370.561 3.25566L369.617 3.71988L370.059 4.61714ZM374.859 15.7483L373.941 16.1443L374.604 17.6829L375.643 16.3685L374.859 15.7483ZM379.659 9.67692L379.681 8.67717L379.183 8.66607L378.875 9.05674L379.659 9.67692ZM384.459 9.78402L384.437 10.7838L384.888 10.7938L385.194 10.4622L384.459 9.78402ZM389.259 4.58204L389.806 3.74483L389.098 3.28224L388.524 3.9039L389.259 4.58204ZM394.059 7.71741L394.868 7.12953L394.76 6.98076L394.606 6.88019L394.059 7.71741ZM398.859 14.3224L398.05 14.9103L399.066 16.3089L399.772 14.7304L398.859 14.3224ZM403.659 3.58318L403.946 2.62526L403.105 2.37309L402.746 3.17512L403.659 3.58318ZM408.459 5.02151L409.369 4.60673L409.181 4.19384L408.746 4.06359L408.459 5.02151ZM413.259 15.5514L412.349 15.9662L413.213 17.8611L414.152 16.0022L413.259 15.5514ZM418.059 6.04665L418.94 5.57344L418.032 3.88249L417.166 5.59586L418.059 6.04665ZM422.859 14.9826L421.978 15.4558L422.507 16.4395L423.426 15.8061L422.859 14.9826ZM427.659 11.6768L427.698 10.6776L427.366 10.6646L427.092 10.8532L427.659 11.6768ZM432.459 11.864L432.42 12.8633L432.996 12.8857L433.304 12.3981L432.459 11.864ZM437.259 4.26652L437.746 3.3931L436.919 2.93213L436.414 3.7324L437.259 4.26652ZM442.059 6.94276L441.572 7.81618L442.073 8.09543L442.567 7.80421L442.059 6.94276ZM446.859 4.11297L446.623 3.1412L446.479 3.17619L446.351 3.25153L446.859 4.11297ZM451.659 2.94775L452.522 2.44329L452.147 1.8003L451.423 1.97597L451.659 2.94775ZM456.459 11.1634L455.596 11.6679L455.72 11.8805L455.929 12.0111L456.459 11.1634ZM460.459 13.6663L459.929 14.514L461.459 15.4717V13.6663H460.459ZM0.458984 10.1035V11.1035H0.558984V10.1035V9.10352H0.458984V10.1035ZM0.558984 10.1035L1.11885 10.9321L5.81885 7.75632L5.25898 6.92774L4.69912 6.09916L-0.000884801 9.27493L0.558984 10.1035ZM5.25898 6.92774L4.42979 7.4867L9.22979 14.6073L10.059 14.0483L10.8882 13.4894L6.08818 6.36878L5.25898 6.92774ZM10.059 14.0483L10.7966 14.7236L15.5966 9.48041L14.859 8.80516L14.1214 8.12991L9.32139 13.3731L10.059 14.0483ZM14.859 8.80516L14.233 9.58498L19.033 13.4382L19.659 12.6584L20.285 11.8785L15.485 8.02534L14.859 8.80516ZM19.659 12.6584L20.2056 13.4957L25.0056 10.3621L24.459 9.52471L23.9123 8.68735L19.1123 11.821L19.659 12.6584ZM24.459 9.52471L24.1823 10.4857L28.9823 11.8678L29.259 10.9069L29.5357 9.94592L24.7357 8.56375L24.459 9.52471ZM29.259 10.9069L28.489 11.5449L33.289 17.3377L34.059 16.6996L34.829 16.0616L30.029 10.2688L29.259 10.9069ZM34.059 16.6996L35.0042 17.0262L39.8041 3.13507L38.859 2.80847L37.9138 2.48188L33.1138 16.373L34.059 16.6996ZM38.859 2.80847L37.9361 3.19343L42.7361 14.7014L43.659 14.3164L44.5819 13.9315L39.7819 2.42352L38.859 2.80847ZM43.659 14.3164L44.4914 14.8706L49.2914 7.66055L48.459 7.10639L47.6266 6.55222L42.8266 13.7623L43.659 14.3164ZM48.459 7.10639L47.7839 7.84412L52.5839 12.2365L53.259 11.4988L53.9341 10.7611L49.1341 6.36865L48.459 7.10639ZM53.259 11.4988L53.2148 12.4978L58.0148 12.7102L58.059 11.7112L58.1032 10.7122L53.3032 10.4998L53.259 11.4988ZM58.059 11.7112L58.7269 12.4554L63.5269 8.14741L62.859 7.40319L62.1911 6.65897L57.391 10.967L58.059 11.7112ZM62.859 7.40319L61.9901 7.89819L66.7901 16.3238L67.659 15.8288L68.5279 15.3338L63.7279 6.90819L62.859 7.40319ZM67.659 15.8288L68.4801 16.3995L73.2801 9.49291L72.459 8.92222L71.6378 8.35152L66.8378 15.2581L67.659 15.8288ZM72.459 8.92222L72.722 9.887L77.5221 8.57818L77.259 7.6134L76.9959 6.64863L72.1959 7.95744L72.459 8.92222ZM77.259 7.6134L76.6658 8.41845L81.4658 11.9554L82.059 11.1503L82.6522 10.3453L77.8522 6.80836L77.259 7.6134ZM82.059 11.1503L81.2689 11.7634L86.0689 17.9497L86.859 17.3367L87.6491 16.7237L82.8491 10.5373L82.059 11.1503ZM86.859 17.3367L87.7501 17.7905L92.5501 8.36623L91.659 7.91238L90.7679 7.45853L85.9679 16.8828L86.859 17.3367ZM91.659 7.91238L90.8084 8.43817L95.6084 16.2036L96.459 15.6778L97.3096 15.152L92.5096 7.3866L91.659 7.91238ZM96.459 15.6778L97.3653 16.1005L102.165 5.80887L101.259 5.38619L100.353 4.9635L95.5527 15.2551L96.459 15.6778ZM101.259 5.38619L100.653 6.18169L105.453 9.83791L106.059 9.04241L106.665 8.2469L101.865 4.59068L101.259 5.38619ZM106.059 9.04241L106.596 9.88608L111.396 6.83162L110.859 5.98795L110.322 5.14428L105.522 8.19874L106.059 9.04241ZM110.859 5.98795L109.952 6.40984L114.752 16.7252L115.659 16.3033L116.566 15.8814L111.766 5.56606L110.859 5.98795ZM115.659 16.3033L116.159 17.1691L120.959 14.3948L120.459 13.529L119.959 12.6632L115.159 15.4375L115.659 16.3033ZM120.459 13.529L119.845 14.3187L124.645 18.0478L125.259 17.2581L125.872 16.4684L121.073 12.7393L120.459 13.529ZM125.259 17.2581L126.073 17.8392L130.873 11.1157L130.059 10.5347L129.245 9.95363L124.445 16.6771L125.259 17.2581ZM130.059 10.5347L130.135 11.5318L134.935 11.1664L134.859 10.1693L134.783 9.17218L129.983 9.53756L130.059 10.5347ZM134.859 10.1693L135.628 10.8083L140.428 5.02959L139.659 4.39063L138.89 3.75166L134.09 9.53033L134.859 10.1693ZM139.659 4.39063L138.808 4.91501L143.607 12.7091L144.459 12.1848L145.31 11.6604L140.51 3.86624L139.659 4.39063ZM144.459 12.1848L144.886 13.0888L149.686 10.8194L149.259 9.91536L148.832 9.01131L144.032 11.2807L144.459 12.1848ZM149.259 9.91536L148.708 10.7501L153.508 13.9162L154.059 13.0815L154.61 12.2467L149.81 9.0806L149.259 9.91536ZM154.059 13.0815L154.209 14.0701L159.009 13.3412L158.859 12.3525L158.709 11.3639L153.909 12.0928L154.059 13.0815ZM158.859 12.3525L158.267 13.1584L163.067 16.6853L163.659 15.8795L164.251 15.0736L159.451 11.5467L158.859 12.3525ZM163.659 15.8795L164.584 16.2606L169.384 4.61636L168.459 4.23525L167.534 3.85414L162.734 15.4984L163.659 15.8795ZM168.459 4.23525L168.398 5.23338L173.198 5.52791L173.259 4.52979L173.32 3.53167L168.52 3.23713L168.459 4.23525ZM173.259 4.52979L172.608 5.28874L177.408 9.40695L178.059 8.648L178.71 7.88905L173.91 3.77084L173.259 4.52979ZM178.059 8.648L178.548 9.52004L183.348 6.82601L182.859 5.95398L182.37 5.08194L177.57 7.77596L178.059 8.648ZM182.859 5.95398L181.946 6.36279L186.746 17.078L187.659 16.6692L188.572 16.2604L183.772 5.54516L182.859 5.95398ZM187.659 16.6692L188.497 17.2141L193.297 9.82833L192.459 9.28341L191.62 8.73848L186.821 16.1243L187.659 16.6692ZM192.459 9.28341L191.628 9.83989L196.428 17.0065L197.259 16.45L198.09 15.8935L193.29 8.72692L192.459 9.28341ZM197.259 16.45L197.677 17.3584L202.477 15.1498L202.059 14.2414L201.641 13.3329L196.841 15.5416L197.259 16.45ZM202.059 14.2414L201.745 15.1907L206.545 16.7802L206.859 15.8309L207.173 14.8816L202.373 13.2921L202.059 14.2414ZM206.859 15.8309L206.587 16.7932L211.387 18.1497L211.659 17.1874L211.931 16.2251L207.131 14.8686L206.859 15.8309ZM211.659 17.1874L212.595 17.5396L217.395 4.78757L216.459 4.43529L215.523 4.08301L210.723 16.8351L211.659 17.1874ZM216.459 4.43529L215.762 5.15213L220.562 9.82087L221.259 9.10404L221.956 8.3872L217.156 3.71845L216.459 4.43529ZM221.259 9.10404L220.503 9.75859L225.303 15.3026L226.059 14.6481L226.815 13.9935L222.015 8.44948L221.259 9.10404ZM226.059 14.6481L225.994 15.646L230.794 15.9586L230.859 14.9607L230.924 13.9628L226.124 13.6502L226.059 14.6481ZM230.859 14.9607L231.419 15.7894L236.219 12.5474L235.659 11.7187L235.099 10.89L230.299 14.132L230.859 14.9607ZM235.659 11.7187L235.176 12.5945L239.976 15.2397L240.459 14.3639L240.942 13.4881L236.142 10.8429L235.659 11.7187ZM240.459 14.3639L241.365 14.7869L246.165 4.50298L245.259 4.08004L244.353 3.65709L239.553 13.941L240.459 14.3639ZM245.259 4.08004L245.501 5.05021L250.301 3.85082L250.059 2.88064L249.817 1.91047L245.017 3.10986L245.259 4.08004ZM250.059 2.88064L249.236 3.44836L254.036 10.4086L254.859 9.84088L255.682 9.27317L250.882 2.31293L250.059 2.88064ZM254.859 9.84088L255.189 10.7849L259.989 9.10745L259.659 8.16344L259.329 7.21942L254.529 8.89687L254.859 9.84088ZM259.659 8.16344L259.235 9.06911L264.035 11.3161L264.459 10.4105L264.883 9.50479L260.083 7.25776L259.659 8.16344ZM264.459 10.4105L265.202 11.0792L270.002 5.74269L269.259 5.07394L268.516 4.4052L263.715 9.74172L264.459 10.4105ZM269.259 5.07394L268.41 5.60241L273.21 13.3133L274.059 12.7848L274.908 12.2563L270.108 4.54547L269.259 5.07394ZM274.059 12.7848L274.749 13.5082L279.549 8.92708L278.859 8.20367L278.169 7.48026L273.369 12.0614L274.059 12.7848ZM278.859 8.20367L277.984 8.68739L282.784 17.3722L283.659 16.8885L284.534 16.4048L279.734 7.71995L278.859 8.20367ZM283.659 16.8885L283.891 17.8612L288.691 16.7156L288.459 15.7429L288.227 14.7702L283.427 15.9158L283.659 16.8885ZM288.459 15.7429L289.375 16.1431L294.175 5.15088L293.259 4.75069L292.343 4.35051L287.543 15.3427L288.459 15.7429ZM293.259 4.75069L292.385 5.23729L297.185 13.8552L298.059 13.3686L298.933 12.882L294.133 4.2641L293.259 4.75069ZM298.059 13.3686L298.947 13.8285L303.747 4.56043L302.859 4.10054L301.971 3.64065L297.171 12.9087L298.059 13.3686ZM302.859 4.10054L302.387 4.98231L307.187 7.54991L307.659 6.66814L308.131 5.78636L303.331 3.21877L302.859 4.10054ZM307.659 6.66814L308.07 7.57975L312.87 5.41545L312.459 4.50383L312.048 3.59222L307.248 5.75652L307.659 6.66814ZM312.459 4.50383L311.547 4.91448L316.347 15.5723L317.259 15.1616L318.171 14.751L313.371 4.09318L312.459 4.50383ZM317.259 15.1616L317.818 15.991L322.618 12.7578L322.059 11.9284L321.5 11.099L316.7 14.3322L317.259 15.1616ZM322.059 11.9284L322.709 12.6884L327.509 8.58402L326.859 7.82399L326.209 7.06396L321.409 11.1684L322.059 11.9284ZM326.859 7.82399L326.048 8.40906L330.848 15.0625L331.659 14.4774L332.47 13.8924L327.67 7.23893L326.859 7.82399ZM331.659 14.4774L331.406 15.445L336.206 16.6978L336.459 15.7302L336.712 14.7626L331.912 13.5098L331.659 14.4774ZM336.459 15.7302L337.308 16.258L342.108 8.53248L341.259 8.00473L340.41 7.47698L335.61 15.2025L336.459 15.7302ZM341.259 8.00473L341.94 8.73732L346.74 4.27743L346.059 3.54485L345.378 2.81226L340.578 7.27215L341.259 8.00473ZM346.059 3.54485L345.589 4.42769L350.389 6.98123L350.859 6.09839L351.329 5.21554L346.529 2.662L346.059 3.54485ZM350.859 6.09839L350.639 7.07379L355.439 8.15867L355.659 7.18327L355.879 6.20788L351.079 5.12299L350.859 6.09839ZM355.659 7.18327L354.809 7.70941L359.609 15.4676L360.459 14.9415L361.309 14.4153L356.509 6.65713L355.659 7.18327ZM360.459 14.9415L361.315 15.4578L366.115 7.49533L365.259 6.97905L364.403 6.46277L359.603 14.4252L360.459 14.9415ZM365.259 6.97905L365.701 7.87631L370.501 5.5144L370.059 4.61714L369.617 3.71988L364.817 6.08179L365.259 6.97905ZM370.059 4.61714L369.141 5.01311L373.941 16.1443L374.859 15.7483L375.777 15.3523L370.977 4.22116L370.059 4.61714ZM374.859 15.7483L375.643 16.3685L380.443 10.2971L379.659 9.67692L378.875 9.05674L374.075 15.1281L374.859 15.7483ZM379.659 9.67692L379.637 10.6767L384.437 10.7838L384.459 9.78402L384.481 8.78427L379.681 8.67717L379.659 9.67692ZM384.459 9.78402L385.194 10.4622L389.994 5.26018L389.259 4.58204L388.524 3.9039L383.724 9.10587L384.459 9.78402ZM389.259 4.58204L388.712 5.41926L393.512 8.55463L394.059 7.71741L394.606 6.88019L389.806 3.74483L389.259 4.58204ZM394.059 7.71741L393.25 8.30529L398.05 14.9103L398.859 14.3224L399.668 13.7345L394.868 7.12953L394.059 7.71741ZM398.859 14.3224L399.772 14.7304L404.572 3.99123L403.659 3.58318L402.746 3.17512L397.946 13.9143L398.859 14.3224ZM403.659 3.58318L403.372 4.54109L408.172 5.97943L408.459 5.02151L408.746 4.06359L403.946 2.62526L403.659 3.58318ZM408.459 5.02151L407.549 5.43629L412.349 15.9662L413.259 15.5514L414.169 15.1366L409.369 4.60673L408.459 5.02151ZM413.259 15.5514L414.152 16.0022L418.952 6.49744L418.059 6.04665L417.166 5.59586L412.366 15.1006L413.259 15.5514ZM418.059 6.04665L417.178 6.51986L421.978 15.4558L422.859 14.9826L423.74 14.5093L418.94 5.57344L418.059 6.04665ZM422.859 14.9826L423.426 15.8061L428.226 12.5004L427.659 11.6768L427.092 10.8532L422.292 14.159L422.859 14.9826ZM427.659 11.6768L427.62 12.6761L432.42 12.8633L432.459 11.864L432.498 10.8648L427.698 10.6776L427.659 11.6768ZM432.459 11.864L433.304 12.3981L438.104 4.80063L437.259 4.26652L436.414 3.7324L431.614 11.3299L432.459 11.864ZM437.259 4.26652L436.772 5.13993L441.572 7.81618L442.059 6.94276L442.546 6.06935L437.746 3.3931L437.259 4.26652ZM442.059 6.94276L442.567 7.80421L447.367 4.97442L446.859 4.11297L446.351 3.25153L441.551 6.08132L442.059 6.94276ZM446.859 4.11297L447.095 5.08475L451.895 3.91953L451.659 2.94775L451.423 1.97597L446.623 3.1412L446.859 4.11297ZM451.659 2.94775L450.796 3.45221L455.596 11.6679L456.459 11.1634L457.322 10.6589L452.522 2.44329L451.659 2.94775ZM456.459 11.1634L455.929 12.0111L459.929 14.514L460.459 13.6663L460.989 12.8186L456.989 10.3157L456.459 11.1634ZM460.459 13.6663H461.459V10.1035H460.459H459.459V13.6663H460.459Z" fill="#4463D2"/>
</svg>
