<svg width="18" height="16" viewBox="0 0 18 16" fill="none" xmlns="http://www.w3.org/2000/svg">
<path d="M5.41356 15.9999C4.03503 16.006 2.94936 15.6147 2.15655 14.8261C1.36966 14.0436 1.08567 13.1557 1.30458 12.1625L1.72169 10.2393C1.85777 9.60119 1.75423 9.18283 1.41108 8.98419C1.07384 8.77953 0.603479 8.67719 0 8.67719V7.3228C0.603479 7.3228 1.07384 7.22348 1.41108 7.02484C1.75423 6.82018 1.85777 6.39881 1.72169 5.76074L1.30458 3.83751C1.08567 2.84429 1.36966 1.95641 2.15655 1.17387C2.94936 0.391337 4.03503 6.84035e-05 5.41356 6.84035e-05L6 1.48087C5.22494 1.48087 4.62442 1.70359 4.19844 2.14903C3.77245 2.58846 3.63933 3.17837 3.79908 3.91877L4.21619 5.83298C4.3286 6.33861 4.27831 6.78406 4.06532 7.16931C3.85233 7.54854 3.45296 7.82543 2.86723 8C3.45296 8.17457 3.85233 8.45447 4.06532 8.83972C4.27831 9.21895 4.3286 9.66139 4.21619 10.167L3.79908 12.0812C3.63933 12.8216 3.77245 13.4115 4.19844 13.851C4.62442 14.2964 5.22494 14.5191 6 14.5191L5.41356 15.9999Z" fill="#50545F"/>
<path d="M12.5864 15.9999L12 14.5191C12.7751 14.5191 13.3667 14.2994 13.7749 13.86C14.1891 13.4206 14.3133 12.8276 14.1477 12.0812L13.7128 10.167C13.6004 9.66139 13.6537 9.21895 13.8726 8.83972C14.0915 8.45447 14.4938 8.17457 15.0795 8C14.4938 7.83145 14.0915 7.55456 13.8726 7.16931C13.6537 6.78406 13.6004 6.33861 13.7128 5.83298L14.1477 3.91877C14.3133 3.17837 14.1891 2.58846 13.7749 2.14903C13.3667 1.70359 12.7751 1.48087 12 1.48087L12.5864 6.84035e-05C13.965 -0.00595111 15.0418 0.385317 15.8168 1.17387C16.5919 1.95641 16.867 2.84429 16.6422 3.83751L16.2073 5.76074C16.0653 6.39881 16.1748 6.82018 16.5357 7.02484C16.9025 7.22348 17.3906 7.3228 18 7.3228V8.67719C17.3906 8.67719 16.9025 8.77953 16.5357 8.98419C16.1748 9.18283 16.0653 9.60119 16.2073 10.2393L16.6422 12.1625C16.867 13.1557 16.5919 14.0436 15.8168 14.8261C15.0418 15.6087 13.965 15.9999 12.5864 15.9999Z" fill="#50545F"/>
</svg>
